<svg xmlns="http://www.w3.org/2000/svg" viewBox="0 0 1200 1200" width="1200" height="1200" preserveAspectRatio="xMidYMid meet" style="width: 100%; height: 100%; transform: translate3d(0px, 0px, 0px);"><defs><clipPath id="__lottie_element_2"><rect width="1200" height="1200" x="0" y="0"></rect></clipPath></defs><g clip-path="url(#__lottie_element_2)"><g transform="matrix(-0.9573540091514587,-0.28891751170158386,0.28891751170158386,-0.9573540091514587,1058.8837890625,827.3701171875)" opacity="1" style="display: block;"><g opacity="1" transform="matrix(1,0,0,1,133.99899291992188,133.99899291992188)"><path stroke-linecap="round" stroke-linejoin="round" fill-opacity="0" stroke="rgb(233,238,255)" stroke-opacity="1" stroke-width="7.313" d=" M0.0020000000949949026,126.68599700927734 C-69.96700286865234,126.68599700927734 -126.68699645996094,69.96600341796875 -126.68699645996094,-0.0020000000949949026 C-126.68699645996094,-69.96700286865234 -69.96700286865234,-126.68599700927734 0.0020000000949949026,-126.68599700927734 C69.96800231933594,-126.68599700927734 126.68599700927734,-69.96700286865234 126.68599700927734,-0.0020000000949949026 C126.68599700927734,40.26300048828125 107.9020004272461,76.13899993896484 78.62000274658203,99.34400177001953"></path></g></g><g transform="matrix(-0.9573540091514587,0.28891751170158386,-0.28891751170158386,-0.9573540091514587,480.2686767578125,792.3226928710938)" opacity="1" style="display: block;"><g opacity="1" transform="matrix(1,0,0,1,170.85899353027344,163.53599548339844)"><path stroke-linecap="round" stroke-linejoin="round" fill-opacity="0" stroke="rgb(183,198,250)" stroke-opacity="1" stroke-width="7.313" d=" M-50.5359992980957,156.2220001220703 C-50.5359992980957,156.2220001220703 -107.04000091552734,0.0010000000474974513 -107.04000091552734,0.0010000000474974513 C-107.04000091552734,0.0010000000474974513 -163.54600524902344,-156.2220001220703 -163.54600524902344,-156.2220001220703 C-163.54600524902344,-156.2220001220703 0,-127.04499816894531 0,-127.04499816894531 C0,-127.04499816894531 163.54600524902344,-97.87000274658203 163.54600524902344,-97.87000274658203 C163.54600524902344,-97.87000274658203 56.50400161743164,29.174999237060547 56.50400161743164,29.174999237060547 C56.50400161743164,29.174999237060547 -50.5359992980957,156.2220001220703 -50.5359992980957,156.2220001220703z"></path></g></g><g transform="matrix(1,0,0,1,164.56500244140625,250.16600036621094)" opacity="1" style="display: block;"><g opacity="1" transform="matrix(1,0,0,1,264.7409973144531,254.8979949951172)"><path fill="rgb(234,239,255)" fill-opacity="1" d=" M-264.4909973144531,-254.6479949951172 C-264.4909973144531,-254.6479949951172 264.4909973144531,-254.6479949951172 264.4909973144531,-254.6479949951172 C264.4909973144531,-254.6479949951172 264.4909973144531,254.6479949951172 264.4909973144531,254.6479949951172 C264.4909973144531,254.6479949951172 -264.4909973144531,254.6479949951172 -264.4909973144531,254.6479949951172 C-264.4909973144531,254.6479949951172 -264.4909973144531,-254.6479949951172 -264.4909973144531,-254.6479949951172z"></path></g><g opacity="1" transform="matrix(1,0,0,1,301.07000732421875,366.2300109863281)"><path fill="rgb(244,247,255)" fill-opacity="1" d=" M-147.38900756835938,-10.17300033569336 C-147.38900756835938,-10.17300033569336 147.38800048828125,-10.17300033569336 147.38800048828125,-10.17300033569336 C147.38800048828125,-10.17300033569336 147.38800048828125,10.17300033569336 147.38800048828125,10.17300033569336 C147.38800048828125,10.17300033569336 -147.38900756835938,10.17300033569336 -147.38900756835938,10.17300033569336 C-147.38900756835938,10.17300033569336 -147.38900756835938,-10.17300033569336 -147.38900756835938,-10.17300033569336z"></path></g><g opacity="1" transform="matrix(1,0,0,1,301.07000732421875,456.9410095214844)"><path fill="rgb(244,247,255)" fill-opacity="1" d=" M-147.38900756835938,-10.17300033569336 C-147.38900756835938,-10.17300033569336 147.38800048828125,-10.17300033569336 147.38800048828125,-10.17300033569336 C147.38800048828125,-10.17300033569336 147.38800048828125,10.17300033569336 147.38800048828125,10.17300033569336 C147.38800048828125,10.17300033569336 -147.38900756835938,10.17300033569336 -147.38900756835938,10.17300033569336 C-147.38900756835938,10.17300033569336 -147.38900756835938,-10.17300033569336 -147.38900756835938,-10.17300033569336z"></path></g></g><g transform="matrix(1,0,0,1,310.5,523)" opacity="1" style="display: block;"><g opacity="1" transform="matrix(1,0,0,1,0,0)"><path stroke-linecap="butt" stroke-linejoin="round" fill-opacity="0" stroke="rgb(177,195,250)" stroke-opacity="1" stroke-width="15" d=" M7.5,7.5 C7.5,7.5 97.93399810791016,7.5 178.66000366210938,7.5"></path></g></g><g transform="matrix(1,0,0,1,310.5,428)" opacity="1" style="display: block;"><g opacity="1" transform="matrix(1,0,0,1,0,0)"><path stroke-linecap="butt" stroke-linejoin="round" fill-opacity="0" stroke="rgb(177,195,250)" stroke-opacity="1" stroke-width="15" d=" M7.5,7.5 C7.5,7.5 302.5,7.5 302.5,7.5"></path></g></g><g transform="matrix(1,0,0,1,310.5,334)" opacity="1" style="display: block;"><g opacity="1" transform="matrix(1,0,0,1,0,0)"><path stroke-linecap="butt" stroke-linejoin="round" fill-opacity="0" stroke="rgb(177,195,250)" stroke-opacity="1" stroke-width="15" d=" M7.5,7.5 C7.5,7.5 302.5,7.5 302.5,7.5"></path></g></g><g transform="matrix(1,0,0,1,213.89898681640625,507.4620056152344)" opacity="1" style="display: block;"><g opacity="1" transform="matrix(1,0,0,1,32.58399963378906,23.461999893188477)"><path stroke-linecap="round" stroke-linejoin="round" fill-opacity="0" stroke="rgb(177,195,250)" stroke-opacity="1" stroke-width="7.313" d=" M25.270999908447266,-16.14900016784668 C25.270999908447266,-16.14900016784668 -8.918000221252441,16.14900016784668 -8.918000221252441,16.14900016784668 C-8.918000221252441,16.14900016784668 -25.270999908447266,0.699999988079071 -25.270999908447266,0.699999988079071"></path></g></g><g transform="matrix(1,0,0,1,213.89898681640625,412.4570007324219)" opacity="1" style="display: block;"><g opacity="1" transform="matrix(1,0,0,1,32.58399963378906,23.461999893188477)"><path stroke-linecap="round" stroke-linejoin="round" fill-opacity="0" stroke="rgb(177,195,250)" stroke-opacity="1" stroke-width="7.313" d=" M25.270999908447266,-16.14900016784668 C25.270999908447266,-16.14900016784668 -8.918000221252441,16.14900016784668 -8.918000221252441,16.14900016784668 C-8.918000221252441,16.14900016784668 -25.270999908447266,0.7009999752044678 -25.270999908447266,0.7009999752044678"></path></g></g><g transform="matrix(1,0,0,1,213.89898681640625,317.4519958496094)" opacity="1" style="display: block;"><g opacity="1" transform="matrix(1,0,0,1,32.58399963378906,23.46299934387207)"><path stroke-linecap="round" stroke-linejoin="round" fill-opacity="0" stroke="rgb(177,195,250)" stroke-opacity="1" stroke-width="7.313" d=" M25.270999908447266,-16.150999069213867 C25.270999908447266,-16.150999069213867 -8.918000221252441,16.150999069213867 -8.918000221252441,16.150999069213867 C-8.918000221252441,16.150999069213867 -25.270999908447266,0.7020000219345093 -25.270999908447266,0.7020000219345093"></path></g></g><g transform="matrix(1,0,0,1,481.61199951171875,438.6130065917969)" opacity="1" style="display: block;"><g opacity="1" transform="matrix(1,0,0,1,252.9949951171875,452.06201171875)"><path fill="rgb(59,55,68)" fill-opacity="1" d=" M119.68399810791016,100.55400085449219 C119.68399810791016,100.55400085449219 119.87300109863281,-99.03399658203125 119.87300109863281,-99.03399658203125 C119.87300109863281,-99.03399658203125 -119.02999877929688,-100.55400085449219 -119.02999877929688,-100.55400085449219 C-119.02999877929688,-100.55400085449219 -119.87300109863281,100.55400085449219 -119.87300109863281,100.55400085449219 C-119.87300109863281,100.55400085449219 119.68399810791016,100.55400085449219 119.68399810791016,100.55400085449219z"></path></g><g opacity="1" transform="matrix(1,0,0,1,139.0279998779297,83.37000274658203)"><path fill="rgb(70,219,200)" fill-opacity="1" d=" M35.08000183105469,-47.62099838256836 C2.5350000858306885,-54.117000579833984 -37.91400146484375,-13.694999694824219 -35.08399963378906,45.9640007019043 C-35.08399963378906,45.9640007019043 4.179999828338623,54.117000579833984 4.179999828338623,54.117000579833984 C4.179999828338623,54.117000579833984 37.915000915527344,-47.055999755859375 35.08000183105469,-47.62099838256836z"></path></g><g opacity="1" transform="matrix(1,0,0,1,98.93599700927734,112.51899719238281)"><path stroke-linecap="round" stroke-linejoin="round" fill-opacity="0" stroke="rgb(27,59,134)" stroke-opacity="1" stroke-width="4.375" d=" M0.6359999775886536,-10.871000289916992 C-0.29499998688697815,-3.9719998836517334 -0.6359999775886536,3.2950000762939453 -0.27399998903274536,10.871000289916992"></path></g><g opacity="1" transform="matrix(1,0,0,1,139.6529998779297,46.2869987487793)"><path stroke-linecap="round" stroke-linejoin="round" fill-opacity="0" stroke="rgb(27,59,134)" stroke-opacity="1" stroke-width="4.375" d=" M29.170000076293945,-16.48200035095215 C8.5600004196167,-20.594999313354492 -15.220000267028809,-5.89300012588501 -29.170000076293945,20.594999313354492"></path></g><g opacity="1" transform="matrix(1,0,0,1,245.56399536132812,198.22300720214844)"><path fill="rgb(70,219,200)" fill-opacity="1" d=" M4.034999847412109,-186.8780059814453 C126.9020004272461,-186.8780059814453 150.67300415039062,-44.821998596191406 134.34800720214844,153.08099365234375 C81.0780029296875,175.4199981689453 -49.80799865722656,186.8780059814453 -107.66100311279297,151.64999389648438 C-134.87100219726562,75.46600341796875 -150.67300415039062,-186.8780059814453 4.034999847412109,-186.8780059814453z"></path></g><g opacity="1" transform="matrix(1,0,0,1,181.89199829101562,207.66600036621094)"><path stroke-linecap="round" stroke-linejoin="round" fill-opacity="0" stroke="rgb(27,59,134)" stroke-opacity="1" stroke-width="4.375" d=" M87.07099914550781,156.75900268554688 C35.20399856567383,160.07699584960938 -20.312000274658203,155.01699829101562 -52.79499816894531,135.23800659179688 C-73.11299896240234,78.35299682617188 -87.07099914550781,-82.3219985961914 -28.433000564575195,-160.07699584960938"></path></g><g opacity="1" transform="matrix(1,0,0,1,288.0419921875,179.01199340820312)"><path stroke-linecap="round" stroke-linejoin="round" fill-opacity="0" stroke="rgb(27,59,134)" stroke-opacity="1" stroke-width="4.375" d=" M-99.38800048828125,-162.27000427246094 C-84.66699981689453,-170.1840057373047 -67.40599822998047,-174.63699340820312 -47.249000549316406,-174.63699340820312 C75.61799621582031,-174.63699340820312 99.38800048828125,-32.582000732421875 83.06500244140625,165.322998046875 C74.95800018310547,168.72000122070312 65.05699920654297,171.8679962158203 53.88999938964844,174.63699340820312"></path></g><g opacity="1" transform="matrix(1,0,0,1,127.35700225830078,435.3380126953125)"><path stroke-linecap="round" stroke-linejoin="round" fill-opacity="0" stroke="rgb(27,59,134)" stroke-opacity="1" stroke-width="4.375" d=" M0.07400000095367432,-95.56600189208984 C0.07400000095367432,-95.56600189208984 -0.07400000095367432,95.56600189208984 -0.07400000095367432,95.56600189208984"></path></g><g opacity="1" transform="matrix(1,0,0,1,99.41999816894531,235.2469940185547)"><path fill="rgb(177,195,250)" fill-opacity="1" d=" M-49.00400161743164,-108.18099975585938 C-49.00400161743164,-108.18099975585938 80.26100158691406,-87.53800201416016 80.26100158691406,-87.53800201416016 C80.26100158691406,-87.53800201416016 49.00400161743164,108.18099975585938 49.00400161743164,108.18099975585938 C49.00400161743164,108.18099975585938 -80.26100158691406,87.53800201416016 -80.26100158691406,87.53800201416016 C-80.26100158691406,87.53800201416016 -49.00400161743164,-108.18099975585938 -49.00400161743164,-108.18099975585938z"></path></g><g opacity="1" transform="matrix(1,0,0,1,93.41799926757812,212.51800537109375)"><path stroke-linecap="round" stroke-linejoin="round" fill-opacity="0" stroke="rgb(27,59,134)" stroke-opacity="1" stroke-width="4.375" d=" M-80.26100158691406,97.85900115966797 C-80.26100158691406,97.85900115966797 -49.00699996948242,-97.85900115966797 -49.00699996948242,-97.85900115966797 C-49.00699996948242,-97.85900115966797 80.26100158691406,-77.21499633789062 80.26100158691406,-77.21499633789062 C80.26100158691406,-77.21499633789062 70.18800354003906,-14.133000373840332 70.18800354003906,-14.133000373840332"></path></g><g opacity="1" transform="matrix(1,0,0,1,103.1780014038086,300.7439880371094)"><path stroke-linecap="round" stroke-linejoin="round" fill-opacity="0" stroke="rgb(27,59,134)" stroke-opacity="1" stroke-width="4.375" d=" M48.91600036621094,-30.277999877929688 C48.91600036621094,-30.277999877929688 39.244998931884766,30.277999877929688 39.244998931884766,30.277999877929688 C39.244998931884766,30.277999877929688 -48.91600036621094,16.201000213623047 -48.91600036621094,16.201000213623047"></path></g><g opacity="1" transform="matrix(1,0,0,1,27.44300079345703,243.4969940185547)"><path fill="rgb(255,255,255)" fill-opacity="1" d=" M-14.159000396728516,42.012001037597656 C-20.04199981689453,-2.4719998836517334 -15.515999794006348,-31.577999114990234 9.815999984741211,-39.87099838256836 C20.04199981689453,-43.21900177001953 9.968000411987305,21.80500030517578 5.896999835968018,32.512001037597656 C1.8250000476837158,43.21900177001953 -9.335000038146973,31.003999710083008 -14.159000396728516,42.012001037597656z"></path></g><g opacity="1" transform="matrix(1,0,0,1,23.020999908447266,217.4759979248047)"><path stroke-linecap="round" stroke-linejoin="round" fill-opacity="0" stroke="rgb(27,59,134)" stroke-opacity="1" stroke-width="4.375" d=" M-13.833000183105469,20.150999069213867 C-16.642000198364258,10.927000045776367 -15.038000106811523,-8.920000076293945 16.642000198364258,-20.150999069213867"></path></g><g opacity="1" transform="matrix(1,0,0,1,21.017000198364258,244.74600219726562)"><path stroke-linecap="round" stroke-linejoin="round" fill-opacity="0" stroke="rgb(27,59,134)" stroke-opacity="1" stroke-width="4.375" d=" M-13.836000442504883,20.149999618530273 C-16.642000198364258,10.928000450134277 -15.038000106811523,-8.92199993133545 16.642000198364258,-20.149999618530273"></path></g><g opacity="1" transform="matrix(1,0,0,1,22.820999145507812,268.2049865722656)"><path stroke-linecap="round" stroke-linejoin="round" fill-opacity="0" stroke="rgb(27,59,134)" stroke-opacity="1" stroke-width="4.375" d=" M-13.833000183105469,20.150999069213867 C-16.641000747680664,10.925999641418457 -15.038999557495117,-8.92300033569336 16.641000747680664,-20.150999069213867"></path></g><g opacity="1" transform="matrix(1,0,0,1,367.5530090332031,447.1570129394531)"><path stroke-linecap="round" stroke-linejoin="round" fill-opacity="0" stroke="rgb(27,59,134)" stroke-opacity="1" stroke-width="4.375" d=" M1.0240000486373901,-105.45999908447266 C1.0240000486373901,-92.25 -1.0240000486373901,105.45899963378906 -1.0240000486373901,105.45899963378906"></path></g><g opacity="1" transform="matrix(1,0,0,1,229.6300048828125,506.8500061035156)"><path stroke-linecap="round" stroke-linejoin="round" fill-opacity="0" stroke="rgb(27,59,134)" stroke-opacity="1" stroke-width="4.375" d=" M-10.609999656677246,-45.76599884033203 C-3.884999990463257,-17.011999130249023 3.490999937057495,14.857999801635742 10.609999656677246,45.76599884033203"></path></g></g><g transform="matrix(0.9743700623512268,0.22495105862617493,-0.22495105862617493,0.9743700623512268,673.8492431640625,406.1710205078125)" opacity="1" style="display: block;"><g opacity="1" transform="matrix(1,0,0,1,136.51199340820312,174.23800659179688)"><path stroke-linecap="round" stroke-linejoin="round" fill-opacity="0" stroke="rgb(27,59,134)" stroke-opacity="1" stroke-width="4.375" d=" M32.8650016784668,-18.312000274658203 C36.84199905395508,-6.956999778747559 45.599998474121094,23.2810001373291 45.599998474121094,23.2810001373291 C45.599998474121094,23.2810001373291 -16.437999725341797,-8.562000274658203 -45.599998474121094,-23.2810001373291"></path></g><g opacity="1" transform="matrix(1,0,0,1,14.557999610900879,173.6999969482422)"><path stroke-linecap="round" stroke-linejoin="round" fill-opacity="0" stroke="rgb(27,59,134)" stroke-opacity="1" stroke-width="4.375" d=" M3.703000068664551,-12.208000183105469 C3.703000068664551,-12.208000183105469 -3.703000068664551,12.208000183105469 -3.703000068664551,12.208000183105469"></path></g><g opacity="1" transform="matrix(1,0,0,1,36.82400131225586,100.30699920654297)"><path stroke-linecap="round" stroke-linejoin="round" fill-opacity="0" stroke="rgb(27,59,134)" stroke-opacity="1" stroke-width="4.375" d=" M4.927000045776367,-16.243000030517578 C4.927000045776367,-16.243000030517578 -4.927000045776367,16.243000030517578 -4.927000045776367,16.243000030517578"></path></g><g opacity="1" transform="matrix(1,0,0,1,139.98699951171875,213.0050048828125)"><path fill="rgb(255,255,255)" fill-opacity="1" d=" M-100.302001953125,-87.33599853515625 C-107.70700073242188,-87.33599853515625 -139.73699951171875,-83.25599670410156 -121.60399627685547,-53.638999938964844 C-111.21399688720703,-36.66999816894531 -106.92500305175781,-41.55099868774414 -102.56999969482422,-46.917999267578125 C-99.1780014038086,-45.1510009765625 -93.94599914550781,-40.983001708984375 -90.5739974975586,-38.1879997253418 C-90.5979995727539,-38.13199996948242 -90.61699676513672,-38.07600021362305 -90.64199829101562,-38.020999908447266 C-81.48200225830078,-30.875999450683594 39.42499923706055,74.67500305175781 64.28800201416016,81.00499725341797 C89.15299987792969,87.33499908447266 117.11499786376953,62.74100112915039 127.87100219726562,44.244998931884766 C139.73699951171875,23.847000122070312 117.23999786376953,-58.909000396728516 113.26799774169922,-68.03500366210938 C109.30000305175781,-77.16300201416016 36.518001556396484,-47.81800079345703 36.518001556396484,-47.81800079345703 C36.518001556396484,-47.81800079345703 48.303001403808594,-12.562999725341797 51.4119987487793,2.009999990463257 C44.55400085449219,-1.8480000495910645 -63.57600021362305,-54.698001861572266 -77.65799713134766,-70.94599914550781 C-77.68099975585938,-70.9000015258789 -77.70899963378906,-70.81700134277344 -77.73400115966797,-70.77100372314453 C-82.89600372314453,-76.04299926757812 -94.5999984741211,-87.33599853515625 -100.302001953125,-87.33599853515625z"></path></g><g opacity="1" transform="matrix(1,0,0,1,154.78599548339844,225.62600708007812)"><path stroke-linecap="round" stroke-linejoin="round" fill-opacity="0" stroke="rgb(27,59,134)" stroke-opacity="1" stroke-width="4.375" d=" M110.66999816894531,10.163999557495117 C110.13500213623047,14.005999565124512 109.22100067138672,17.218000411987305 107.84200286865234,19.589000701904297 C97.08599853515625,38.084999084472656 69.12300109863281,62.676998138427734 44.2599983215332,56.349998474121094 C19.395000457763672,50.01900100708008 -100.02899932861328,-58.02000045776367 -110.66999816894531,-62.678001403808594"></path></g><g opacity="1" transform="matrix(1,0,0,1,254.8459930419922,159.9770050048828)"><path stroke-linecap="round" stroke-linejoin="round" fill-opacity="0" stroke="rgb(27,59,134)" stroke-opacity="1" stroke-width="4.375" d=" M-6.822999954223633,-27.04199981689453 C-4.78000020980835,-22.341999053955078 2.174999952316284,1.871000051498413 6.822999954223633,27.04199981689453"></path></g><g opacity="1" transform="matrix(1,0,0,1,32.5620002746582,121.56700134277344)"><path stroke-linecap="round" stroke-linejoin="round" fill-opacity="0" stroke="rgb(27,59,134)" stroke-opacity="1" stroke-width="4.375" d=" M23.113000869750977,12.35099983215332 C14.314000129699707,-12.35099983215332 -4.650000095367432,-5.578999996185303 -23.113000869750977,10.524999618530273"></path></g><g opacity="1" transform="matrix(1,0,0,1,23.349000930786133,141.66299438476562)"><path stroke-linecap="round" stroke-linejoin="round" fill-opacity="0" stroke="rgb(27,59,134)" stroke-opacity="1" stroke-width="4.375" d=" M11.927000045776367,-4.563000202178955 C6.745999813079834,-4.941999912261963 -6.071000099182129,-0.08100000023841858 -11.927000045776367,4.941999912261963"></path></g><g opacity="1" transform="matrix(1,0,0,1,28.167999267578125,156.3459930419922)"><path stroke-linecap="round" stroke-linejoin="round" fill-opacity="0" stroke="rgb(27,59,134)" stroke-opacity="1" stroke-width="4.375" d=" M10.85200023651123,-3.8410000801086426 C5.264999866485596,-3.9630000591278076 -3.8489999771118164,0.5339999794960022 -10.85200023651123,3.9630000591278076"></path></g><g opacity="1" transform="matrix(1,0,0,1,197.40199279785156,88.84700012207031)"><path fill="rgb(70,219,200)" fill-opacity="1" d=" M-39.891998291015625,-68.97599792480469 C17.82900047302246,-88.59700012207031 73.33100128173828,36.090999603271484 70.61299896240234,49.1619987487793 C67.8949966430664,62.23099899291992 -22.958999633789062,88.59700012207031 -33.43199920654297,80.34100341796875 C-43.904998779296875,72.08699798583984 -73.33100128173828,-57.611000061035156 -39.891998291015625,-68.97599792480469z"></path></g><g opacity="1" transform="matrix(1,0,0,1,159.15499877929688,131.6510009765625)"><path stroke-linecap="round" stroke-linejoin="round" fill-opacity="0" stroke="rgb(27,59,134)" stroke-opacity="1" stroke-width="4.375" d=" M20.322999954223633,29.385000228881836 C9.067999839782715,31.267000198364258 0.3569999933242798,31.569000244140625 -2.4760000705718994,29.336999893188477 C-7.077000141143799,25.70800018310547 -15.343999862670898,-1.3799999952316284 -20.322999954223633,-31.569000244140625"></path></g><g opacity="1" transform="matrix(1,0,0,1,215.81300354003906,82.63999938964844)"><path stroke-linecap="round" stroke-linejoin="round" fill-opacity="0" stroke="rgb(27,59,134)" stroke-opacity="1" stroke-width="4.375" d=" M-47.340999603271484,-72.64600372314453 C3.263000011444092,-65.36299896240234 47.340999603271484,35.48699951171875 44.9119987487793,47.16699981689453 C43.42900085449219,54.29600143432617 15.718000411987305,65.38200378417969 -10.86400032043457,72.64600372314453"></path></g></g><g transform="matrix(0.9902680516242981,-0.13917310535907745,0.13917310535907745,0.9902680516242981,563.6648559570312,200.78025817871094)" opacity="1" style="display: block;"><g opacity="1" transform="matrix(1,0,0,1,112.6500015258789,142.593994140625)"><path fill="rgb(255,255,255)" fill-opacity="1" d=" M-70.30599975585938,-0.0010000000474974513 C-70.30599975585938,-52.13199996948242 -38.83000183105469,-94.3949966430664 0.0010000000474974513,-94.3949966430664 C38.83000183105469,-94.3949966430664 70.30599975585938,-52.13199996948242 70.30599975585938,-0.0010000000474974513 C70.30599975585938,52.132999420166016 38.83000183105469,94.3949966430664 0.0010000000474974513,94.3949966430664 C-38.83000183105469,94.3949966430664 -70.30599975585938,52.132999420166016 -70.30599975585938,-0.0010000000474974513z"></path></g><g opacity="1" transform="matrix(1,0,0,1,103.73100280761719,142.6580047607422)"><path fill="rgb(27,59,134)" fill-opacity="1" d=" M-4.218999862670898,0.0010000000474974513 C-4.218999862670898,-4.550000190734863 -2.3299999237060547,-8.23799991607666 -0.0010000000474974513,-8.23799991607666 C2.3310000896453857,-8.23799991607666 4.218999862670898,-4.550000190734863 4.218999862670898,0.0010000000474974513 C4.218999862670898,4.548999786376953 2.3310000896453857,8.23799991607666 -0.0010000000474974513,8.23799991607666 C-2.3299999237060547,8.23799991607666 -4.218999862670898,4.548999786376953 -4.218999862670898,0.0010000000474974513z"></path></g><g opacity="1" transform="matrix(1,0,0,1,75.73300170898438,169.5850067138672)"><path stroke-linecap="round" stroke-linejoin="round" fill-opacity="0" stroke="rgb(27,59,134)" stroke-opacity="1" stroke-width="4.375" d=" M4.354000091552734,-11.588000297546387 C4.218999862670898,-6.499000072479248 2.746000051498413,4.48799991607666 -4.354000091552734,11.588000297546387"></path></g><g opacity="1" transform="matrix(1,0,0,1,105.13800048828125,196.64599609375)"><path stroke-linecap="round" stroke-linejoin="round" fill-opacity="0" stroke="rgb(27,59,134)" stroke-opacity="1" stroke-width="4.375" d=" M-8.973999977111816,5.021999835968018 C-3.0810000896453857,4.21999979019165 4.2870001792907715,1.9429999589920044 8.973999977111816,-5.021999835968018"></path></g><g opacity="1" transform="matrix(1,0,0,1,133.95700073242188,243.34500122070312)"><path fill="rgb(255,255,255)" fill-opacity="1" d=" M38.926998138427734,-61.665000915527344 C38.52899932861328,-56.862998962402344 28.121999740600586,24.124000549316406 31.85700035095215,52.941001892089844 C22.91900062561035,60.547000885009766 -38.926998138427734,61.665000915527344 -37.65399932861328,50.275001525878906 C-35.518001556396484,31.19499969482422 -30.98200035095215,1.5779999494552612 -34.85300064086914,-13.49899959564209"></path></g><g opacity="1" transform="matrix(1,0,0,1,93.48899841308594,256.8609924316406)"><path stroke-linecap="round" stroke-linejoin="round" fill-opacity="0" stroke="rgb(27,59,134)" stroke-opacity="1" stroke-width="4.375" d=" M-2.6480000019073486,28.35700035095215 C-0.5120000243186951,9.276000022888184 2.6480000019073486,-11.359000205993652 0.5370000004768372,-28.35700035095215"></path></g><g opacity="1" transform="matrix(1,0,0,1,149.3939971923828,239.16700744628906)"><path stroke-linecap="round" stroke-linejoin="round" fill-opacity="0" stroke="rgb(27,59,134)" stroke-opacity="1" stroke-width="4.375" d=" M17.19300079345703,-54.319000244140625 C16.79199981689453,-49.516998291015625 7.2230000495910645,19.89900016784668 10.958000183105469,48.71699905395508 C7.434000015258789,51.71799850463867 -4.324999809265137,53.70800018310547 -17.19300079345703,54.319000244140625"></path></g><g opacity="1" transform="matrix(1,0,0,1,93.26599884033203,208.38699340820312)"><path stroke-linecap="round" stroke-linejoin="round" fill-opacity="0" stroke="rgb(27,59,134)" stroke-opacity="1" stroke-width="4.375" d=" M44.737998962402344,11.621000289916992 C35.428001403808594,17.72800064086914 24.965999603271484,21.1560001373291 13.90999984741211,21.1560001373291 C-10.581000328063965,21.1560001373291 -32.14799880981445,4.3420000076293945 -44.737998962402344,-21.1560001373291"></path></g><g opacity="1" transform="matrix(1,0,0,1,107.1760025024414,118.39900207519531)"><path stroke-linecap="round" stroke-linejoin="round" fill-opacity="0" stroke="rgb(27,59,134)" stroke-opacity="1" stroke-width="4.375" d=" M-68.2020034790039,39.757999420166016 C-69.57599639892578,32.39400100708008 -70.30599975585938,24.684999465942383 -70.30599975585938,16.75 C-70.30599975585938,-35.3849983215332 -38.83000183105469,-77.64299774169922 0.0010000000474974513,-77.64299774169922 C38.83000183105469,-77.64299774169922 70.30599975585938,-35.3849983215332 70.30599975585938,16.75 C70.30599975585938,39.95600128173828 64.06800079345703,61.20399856567383 53.722999572753906,77.64299774169922"></path></g><g opacity="1" transform="matrix(1,0,0,1,108.52200317382812,103.5999984741211)"><path fill="rgb(236,201,84)" fill-opacity="1" d=" M68.40299987792969,90.98300170898438 C76.28800201416016,92.41300201416016 89.61499786376953,49.80799865722656 92.33599853515625,24.111000061035156 C97.177001953125,-21.665000915527344 49.16699981689453,-79.91000366210938 13.298999786376953,-83.51000213623047 C6.256999969482422,-84.21600341796875 -1.6959999799728394,-76.97200012207031 2.622999906539917,-64.84700012207031 C-6.065999984741211,-73.97100067138672 -28.875,-86.03700256347656 -48.56999969482422,-88.56900024414062 C-78.48999786376953,-92.41300201416016 -92.94599914550781,-72.53099822998047 -92.94599914550781,-63.67399978637695 C-92.94599914550781,-54.81399917602539 -87.5739974975586,-27.0939998626709 -76.83599853515625,-18.53700065612793 C-85.51300048828125,-18.643999099731445 -93.23500061035156,-17.847999572753906 -94.20099639892578,-10.821000099182129 C-97.177001953125,10.854999542236328 -84.89600372314453,30.420000076293945 -64.11399841308594,28.43000030517578 C-62.66899871826172,16.225000381469727 -60.05099868774414,4.40500020980835 -55.77399826049805,-3.5450000762939453 C-52.30099868774414,27.738000869750977 27.226999282836914,17.253999710083008 27.070999145507812,22.476999282836914 C26.4689998626709,42.59299850463867 50.345001220703125,42.59600067138672 51.17399978637695,43.09400177001953 C69.61499786376953,54.1510009765625 55.82899856567383,88.69999694824219 68.40299987792969,90.98300170898438z"></path></g><g opacity="1" transform="matrix(1,0,0,1,16.62299919128418,80.947998046875)"><path stroke-linecap="round" stroke-linejoin="round" fill-opacity="0" stroke="rgb(27,59,134)" stroke-opacity="1" stroke-width="4.375" d=" M-7.636000156402588,-41.72600173950195 C-5.7789998054504395,-29.777000427246094 -0.675000011920929,-11.529999732971191 7.676000118255615,-4.874000072479248 C-0.9980000257492065,-4.98199987411499 -8.720999717712402,-4.184999942779541 -9.687000274658203,2.8410000801086426 C-12.248000144958496,21.503999710083008 -3.497999906539917,38.60300064086914 12.24899959564209,41.72600173950195"></path></g><g opacity="1" transform="matrix(1,0,0,1,96.94200134277344,28.31800079345703)"><path stroke-linecap="round" stroke-linejoin="round" fill-opacity="0" stroke="rgb(27,59,134)" stroke-opacity="1" stroke-width="4.375" d=" M74.63300323486328,23.94300079345703 C58.51499938964844,1.6339999437332153 36.32899856567383,-15.326000213623047 17.496000289916992,-17.216999053955078 C10.45199966430664,-17.92300033569336 2.499000072479248,-10.678999900817871 6.817999839782715,1.4459999799728394 C-1.8680000305175781,-7.677999973297119 -24.679000854492188,-19.743999481201172 -44.375,-22.275999069213867 C-57.33399963378906,-23.94300079345703 -67.39299774169922,-21.156999588012695 -74.63300323486328,-16.743000030517578"></path></g><g opacity="1" transform="matrix(1,0,0,1,178.87899780273438,141.24000549316406)"><path stroke-linecap="round" stroke-linejoin="round" fill-opacity="0" stroke="rgb(27,59,134)" stroke-opacity="1" stroke-width="4.375" d=" M-15.38700008392334,32.18199920654297 C-14.949999809265137,38.64699935913086 -13.8100004196167,43.540000915527344 -9.34000015258789,44.35100173950195 C-1.4550000429153442,45.784000396728516 11.87399959564209,3.180000066757202 14.590999603271484,-22.517000198364258 C15.38700008392334,-30.03700065612793 14.758000373840332,-37.89400100708008 12.98799991607666,-45.78499984741211"></path></g><g opacity="1" transform="matrix(1,0,0,1,85.6989974975586,108.14199829101562)"><path stroke-linecap="round" stroke-linejoin="round" fill-opacity="0" stroke="rgb(27,59,134)" stroke-opacity="1" stroke-width="4.375" d=" M-43.880001068115234,-8.571999549865723 C-42.85200119018555,-11.71500015258789 -41.67399978637695,-14.586000442504883 -40.334999084472656,-17.076000213623047 C-36.861000061035156,14.206999778747559 42.665000915527344,3.7209999561309814 42.51100158691406,8.944999694824219 C42.41600036621094,12.131999969482422 42.93299865722656,14.8149995803833 43.880001068115234,17.076000213623047"></path></g><g opacity="1" transform="matrix(1,0,0,1,157.04600524902344,151.98500061035156)"><path fill="rgb(255,255,255)" fill-opacity="1" d=" M-13.965999603271484,-14.63700008392334 C-11.08899974822998,-16.631999969482422 -7.599999904632568,-17.799999237060547 -3.8329999446868896,-17.799999237060547 C5.997000217437744,-17.799999237060547 13.965999603271484,-9.829999923706055 13.965999603271484,0 C13.965999603271484,9.829999923706055 5.997000217437744,17.799999237060547 -3.8329999446868896,17.799999237060547 C-4.933000087738037,17.799999237060547 -6.008999824523926,17.700000762939453 -7.052999973297119,17.509000778198242"></path></g><g opacity="1" transform="matrix(1,0,0,1,155.42799377441406,148.26600646972656)"><path stroke-linecap="round" stroke-linejoin="round" fill-opacity="0" stroke="rgb(27,59,134)" stroke-opacity="1" stroke-width="4.375" d=" M-13.965999603271484,-14.637999534606934 C-11.08899974822998,-16.631999969482422 -7.5970001220703125,-17.801000595092773 -3.8329999446868896,-17.801000595092773 C6,-17.801000595092773 13.965999603271484,-9.829999923706055 13.965999603271484,0 C13.965999603271484,9.831999778747559 6,17.801000595092773 -3.8329999446868896,17.801000595092773 C-4.929999828338623,17.801000595092773 -6.00600004196167,17.702999114990234 -7.048999786376953,17.511999130249023"></path></g><g opacity="1" transform="matrix(1,0,0,1,138.3179931640625,137.50599670410156)"><path stroke-linecap="round" stroke-linejoin="round" fill-opacity="0" stroke="rgb(27,59,134)" stroke-opacity="1" stroke-width="4.375" d=" M-3.1429998874664307,3.877000093460083 C-1.8229999542236328,0.7319999933242798 0.37400001287460327,-1.9550000429153442 3.1429998874664307,-3.877000093460083"></path></g></g></g></svg>